<svg xmlns="http://www.w3.org/2000/svg" width="350.980041px" height="59.40600599999999px" viewBox="0 0 350.980041 59.40600599999999" preserveAspectRatio="xMidYMid meet"><g transform="matrix(1 0 0 -1 -215.51001 441.175995)"><g><g transform="translate(26.0321 520.3842)"><path d="M 0 0 L 0 0 C -5.152 0 -9.329 4.177 -9.329 9.329 C -9.329 14.481 -5.152 18.658 0 18.658 L 0 18.658 C 5.152 18.658 9.329 14.481 9.329 9.329 C 9.329 4.177 5.152 0 0 0" fill="#2D3282"></path></g></g><g><g transform="translate(360.4624 431.0147)"><path d="M 0 0 L 0 5.675 L -32.788 5.675 L -32.788 -4.414 L -26.167 0 Z" fill="#2D3282"></path></g><g transform="translate(334.2954 410.9953)"><path d="M 0 0 L 23.33 0 L 23.33 5.675 L 0 5.675 L -6.621 0.946 L -6.621 -20.808 L 27.113 -20.808 L 27.113 -14.975 L 0 -14.975 Z" fill="#2D3282"></path></g><g transform="translate(387.4178 436.6895)"><path d="M 0 0 L -20.808 -46.502 L -14.029 -46.502 L 3.468 -6.778 L 20.808 -46.502 L 27.743 -46.502 L 6.778 0 Z" fill="#2D3282"></path></g><g transform="translate(456.9341 402.1678)"><path d="M 0 0 L -27.901 34.522 L -33.418 34.522 L -33.418 -11.98 L -26.798 -11.97 L -26.798 22.542 L 1.103 -11.98 L 6.621 -11.98 L 6.621 34.522 L 0 34.522 Z" fill="#2D3282"></path></g><g transform="translate(555.2972 431.1723)"><path d="M 0 0 L 0 5.675 L -32.788 5.675 L -32.788 -4.414 L -26.167 0 Z" fill="#2D3282"></path></g><g transform="translate(242.3327 395.6128)"><path d="M 0 0 C -10.026 0 -18.154 8.061 -18.154 18.006 C -18.154 27.95 -10.026 36.012 0 36.012 C 10.026 36.012 18.154 27.95 18.154 18.006 C 18.154 8.061 10.026 0 0 0 M 0 41.728 C -13.741 41.728 -24.879 31.107 -24.879 18.006 C -24.879 4.904 -13.741 -5.716 0 -5.716 C 13.741 -5.716 24.879 4.904 24.879 18.006 C 24.879 31.107 13.741 41.728 0 41.728" fill="#2D3282"></path></g><g transform="translate(299.4318 431.6107)"><path d="M 0 0 C 5.261 0 10 -2.22 13.316 -5.767 C 13.32 -5.771 13.323 -5.776 13.327 -5.78 L 17.798 -1.432 C 13.28 2.978 6.976 5.716 0 5.716 C -13.741 5.716 -24.879 -4.904 -24.879 -18.006 C -24.879 -31.107 -13.741 -41.728 0 -41.728 C 6.873 -41.728 13.095 -39.071 17.598 -34.775 C 16.454 -33.63 13.643 -30.791 13.208 -30.352 C 9.898 -33.834 5.207 -36.012 0 -36.012 C -10.026 -36.012 -18.154 -27.95 -18.154 -18.006 C -18.154 -8.061 -10.026 0 0 0" fill="#2D3282"></path></g><g transform="translate(539.4138 425.8644)"><path d="M 0 0 C -6.872 -0.117 -13.048 -2.88 -17.477 -7.253 C -16.314 -8.377 -13.454 -11.168 -13.012 -11.6 C -9.762 -8.061 -5.108 -5.804 0.097 -5.716 C 10.122 -5.545 18.386 -13.466 18.555 -23.409 C 18.641 -28.42 16.654 -32.987 13.379 -36.307 L 21.472 -36.307 C 23.955 -32.542 25.362 -28.071 25.28 -23.295 C 25.057 -10.195 13.739 0.234 0 0" fill="#2D3282"></path></g><g transform="translate(499.6986 414.7785)"><path d="M 0 0 C -11.537 3.079 -15.95 3.765 -17.342 7.64 C -18.581 11.09 -16.055 14.45 -13.378 15.612 C -10.779 16.741 -9.507 17.171 -4.889 16.833 C -0.629 16.521 1.393 15.662 3.941 14.502 C 5.003 14.019 5.517 13.714 6.305 13.084 L 8.598 18.357 C 5.673 20.353 -2.583 23.995 -12.354 21.92 C -14.012 21.568 -14.556 21.475 -17.365 20.169 C -18.125 19.815 -24.077 16.041 -24.006 9.259 C -23.955 4.33 -21.711 1.774 -20.865 1.079 C -19.128 -0.347 -16.664 -1.912 -12.132 -3.161 C -5.874 -4.886 -4.92 -4.851 -0.519 -6.463 C 1.436 -7.179 3.425 -8.393 3.97 -11.404 C 4.444 -14.02 2.995 -16.595 1.103 -17.655 C -3.47 -20.218 -10.139 -19.434 -11.391 -19.153 C -17.875 -17.695 -20.377 -15.978 -22.745 -14.187 L -25.195 -19.087 C -21.803 -22.761 -11.922 -26.417 -2.883 -24.748 C 0.547 -24.115 6.199 -23.034 9.285 -17.497 C 11.836 -12.922 10.13 -8.308 10.048 -8 C 9.541 -6.101 7.296 -1.947 0 0" fill="#2D3282"></path></g><g transform="translate(403.7832 390.1877)"><path d="M 0 0 L -2.541 5.554 L -23.374 5.554 L -25.915 0 Z" fill="#2D3282"></path></g></g></g></svg>